<svg width="123px" height="38px" viewBox="0 0 123 38" version="1.1" xmlns="http://www.w3.org/2000/svg" xmlns:xlink="http://www.w3.org/1999/xlink"><title>@3xAppGallery</title><defs><polygon id="path-1" points="0 0 19.9999798 0 19.9999798 19.9999596 0 19.9999596"></polygon></defs><g id="Emre'den-istek" stroke="none" stroke-width="1" fill="none" fill-rule="evenodd"><g id="Group-31" transform="translate(-273.000000, 1.000000)"><g id="AppGallery" transform="translate(274.000000, 0.000000)"><rect id="Background" stroke="#D7DDDB" fill="#FFFFFF" x="-0.5" y="-0.5" width="122" height="37" rx="4"></rect><g id="Group-61" transform="translate(9.000000, 5.000000)"><g id="Group-8" transform="translate(0.000000, 3.000000)"><g id="Group-3"><mask id="mask-2" fill="white"><use xlink:href="#path-1"></use></mask><g id="Clip-2"></g><path d="M4.30765657,-4.04040404e-05 L15.692303,-4.04040404e-05 C18.0712929,-4.04040404e-05 19.9999798,1.92864646 19.9999798,4.30763636 L19.9999798,15.6922828 C19.9999798,18.0714747 18.0712929,19.9999596 15.692303,19.9999596 L4.30765657,19.9999596 C1.92866667,19.9999596 -2.02020202e-05,18.0714747 -2.02020202e-05,15.6922828 L-2.02020202e-05,4.30763636 C-2.02020202e-05,1.92864646 1.92866667,-4.04040404e-05 4.30765657,-4.04040404e-05" id="Fill-1" fill="#E14459"></path></g><path d="M15.0527071,1.30727224 C14.7385657,1.30767677 14.4842222,1.56181818 14.4844241,1.87474747 C14.4846263,2.18787879 14.7395758,2.44141414 15.0539192,2.44121224 C15.3680606,2.4410101 15.622404,2.18727273 15.622404,1.87434343 L15.622404,1.87313131 C15.621798,1.56020202 15.3668485,1.30686869 15.0527071,1.30727224 M4.87533333,1.30727224 C4.56119192,1.30767677 4.30684848,1.56181818 4.30725204,1.87474747 C4.30745455,2.18787879 4.56220202,2.44141414 4.87634343,2.44121224 C5.19048485,2.4410101 5.4450303,2.18727273 5.4450303,1.87434343 L5.4450303,1.87313131 C5.44442424,1.56020202 5.18947475,1.30686869 4.87533333,1.30727224" id="Fill-4" fill="#C73148"></path><path d="M9.06242424,10.5033333 L9.44787879,11.380101 L9.47393939,11.440303 L8.6569697,11.440303 L8.68262626,11.380101 L9.06242424,10.5033333 Z M14.6753535,9.84292929 L14.6753535,12.4576768 L16.6860606,12.4576768 L16.6860606,11.9809091 L15.2080808,11.9809091 L15.2080808,11.3326263 L16.1909091,11.3326263 L16.1909091,10.8558586 L15.2080808,10.8558586 L15.2080808,10.320101 L16.6347475,10.320101 L16.6347475,9.84313131 L14.6753535,9.84292929 Z M6.84545455,9.84212121 L6.84545455,11.3409091 C6.84545455,11.7665657 6.63070707,11.9936364 6.24040404,11.9936364 C5.84767677,11.9936364 5.63151515,11.760101 5.63151515,11.3227273 L5.63151515,9.84373737 L5.09131313,9.84373737 L5.09131313,11.3409091 C5.09131313,12.0774747 5.50767677,12.499697 6.23333333,12.499697 C6.96585859,12.499697 7.38565657,12.0693939 7.38565657,11.3190909 L7.38565657,9.84212121 L6.84545455,9.84212121 Z M2.0440404,9.84131313 L2.0440404,12.459697 L2.58444444,12.459697 L2.58444444,11.3962626 L3.80424242,11.3962626 L3.80424242,12.459697 L4.34464646,12.459697 L4.34464646,9.84151515 L3.80424242,9.84151515 L3.80424242,10.8976768 L2.58444444,10.8976768 L2.58444444,9.84151515 L2.0440404,9.84131313 Z M17.3290909,12.4556566 L17.8622222,12.4556566 L17.8622222,9.84111111 L17.3290909,9.84111111 L17.3290909,12.4556566 Z M8.83373737,9.84070707 L7.66060606,12.4574747 L8.21212121,12.4574747 L8.43858586,11.9508081 L8.45454545,11.9126263 L9.67333333,11.9126263 L9.91232323,12.4574747 L10.4785859,12.4574747 L9.31636364,9.85606061 L9.30606061,9.84070707 L8.83373737,9.84070707 Z M12.0448485,9.84010101 L11.440404,11.6407071 L10.8517172,9.84151515 L10.2771717,9.84151515 L11.2048485,12.4586869 L11.6521212,12.4586869 L12.2579798,10.7392929 L12.8632323,12.4586869 L13.3141414,12.4586869 L14.239596,9.84151515 L13.679596,9.84151515 L13.090101,11.6407071 L12.4854545,9.84010101 L12.0448485,9.84010101 Z M4.85292929,1.79606061 C4.65515152,1.80676768 4.66496854,2.09424242 4.66496854,2.09424242 C5.72767677,4.16373737 7.68444444,5.17888889 9.9410101,5.17888889 C12.1943434,5.17565657 14.1705051,4.14939394 15.2319192,2.08272727 C15.2319192,2.08272727 15.2739394,1.69363636 14.859798,1.82838384 C13.7713131,3.63242424 11.9428283,4.69949495 9.94222222,4.70292929 C7.9379798,4.70353535 6.1159596,3.64737374 5.02545455,1.84010101 C4.95494949,1.8059596 4.89838384,1.79363636 4.85292929,1.79606061 L4.85292929,1.79606061 Z" id="Fill-6" fill="#FFFFFF"></path></g><text id="AppGallery-’den-indi" font-family="Arial-BoldMT, Arial" font-size="12" font-weight="bold" line-spacing="13" fill="#53605E"><tspan x="26.4394531" y="11">AppGallery</tspan><tspan x="26" y="24.0527344" font-family="ArialMT, Arial" font-weight="normal">’den indirin</tspan></text></g></g></g></g></svg>