<svg xmlns="http://www.w3.org/2000/svg" width="33" height="33">
    <g fill="none" fill-rule="evenodd">
    <circle cx="16.5" cy="16.5" r="16.5" fill="#EFEFEF"></circle>
    <path fill="#A8ADAF" d="M20.274 19.932l-2.21-3.61h-.074c.083.475.158.922.16 1.378l.005 2.237-2.393.007-.018-6.885 2.401-.006 2.258 3.81h.073c-.102-.575-.214-1.168-.215-1.753l-.006-2.063 2.393-.006.019 6.884-2.393.007zm-9.922.027l-.019-6.885 4.63-.012.005 1.88-2.109.006.002.658 1.927-.006.005 1.79-1.927.005.001.676 2.183-.006.005 1.88-4.703.014zm6.504-12.162a8.648 8.648 0 0 0-6.258 2.297 8.652 8.652 0 0 0-2.8 6.05 8.653 8.653 0 0 0 2.297 6.258 8.65 8.65 0 0 0 6.05 2.8 8.64 8.64 0 0 0 6.257-2.297 8.652 8.652 0 0 0 2.8-6.05 8.651 8.651 0 0 0-2.297-6.257 8.651 8.651 0 0 0-6.05-2.8zm9.352 9.1a9.652 9.652 0 0 1-3.124 6.748 9.646 9.646 0 0 1-6.98 2.563 9.657 9.657 0 0 1-6.75-3.124 9.655 9.655 0 0 1-2.563-6.981 9.653 9.653 0 0 1 3.124-6.749 9.66 9.66 0 0 1 6.982-2.563 9.653 9.653 0 0 1 6.749 3.124 9.653 9.653 0 0 1 2.562 6.982zm.574-2.536a10.418 10.418 0 0 0-1.566-3.716 10.558 10.558 0 0 0-2.135-2.327 10.444 10.444 0 0 0-6.152-2.309 10.458 10.458 0 0 0-7.034 2.329 10.51 10.51 0 0 0-3.02 3.962 10.502 10.502 0 0 0 7.686 14.52 10.558 10.558 0 0 0 1.51.17 10.483 10.483 0 0 0 8.453-3.717 10.458 10.458 0 0 0 2.467-6.345 10.513 10.513 0 0 0-.21-2.567z"></path>
    </g>
</svg>