<svg class="footer-logo" xmlns="http://www.w3.org/2000/svg" xmlns:xlink="http://www.w3.org/1999/xlink" width="162" height="23" viewBox="0 0 162 23"><defs><path id="enuygun-logo-a" d="M53.8223833,0.359461055 L53.8229266,13.0871084 L53.8229266,13.0871084 L53.82673,13.3878805 C53.8582436,14.8421136 54.1182312,16.2713372 56.2631288,16.2713372 C58.4086995,16.2713372 58.6687687,14.8421136 58.7002923,13.3878805 L58.7040968,13.0871084 L58.7040968,13.0871084 L58.7046403,0.359461055 L66.7240138,0.359461055 L66.7240138,13.5673632 C66.7240138,16.7062817 65.766025,19.1111135 63.8768604,20.7158436 C62.0922664,22.2315478 59.5304795,22.9999623 56.2631288,22.9999623 C52.9961611,22.9999623 50.4347573,22.2315478 48.6497802,20.7158436 C46.7609986,19.1114907 45.8033929,16.7062817 45.8033929,13.5673632 L45.8033929,13.5673632 L45.8033929,0.359461055 L53.8223833,0.359461055 Z M123.506318,0.359461055 L123.506861,13.0871084 L123.506861,13.0871084 L123.510665,13.3878805 C123.542184,14.8421136 123.802212,16.2713372 125.947447,16.2713372 C128.240988,16.2713372 128.37999,14.6381816 128.388415,13.0871084 L128.388958,0.359461055 L136.408332,0.359461055 L136.408332,13.5673632 C136.408332,16.7062817 135.450343,19.1111135 133.560795,20.7158436 C131.776201,22.2315478 129.214797,22.9999623 125.947447,22.9999623 C122.680096,22.9999623 120.119075,22.2315478 118.334098,20.7158436 C116.445316,19.1114907 115.487711,16.7062817 115.487711,13.5673632 L115.487711,13.5673632 L115.487711,0.359461055 L123.506318,0.359461055 Z M101.256885,-5.15143483e-14 C104.815731,-5.15143483e-14 109.504935,1.57417461 111.696703,4.58483541 L111.696703,4.58483541 L104.669409,8.09079726 C103.989509,7.12811009 102.86528,6.57924259 101.560638,6.57924259 C98.4196909,6.57924259 96.7768225,9.29566515 96.7768225,11.9788916 C96.7768225,14.3939086 98.3361877,16.9601942 101.225859,16.9601942 C102.63737,16.9601942 104.344206,16.3057027 104.756743,14.8692165 L104.756743,14.8692165 L104.814199,14.6700399 L100.989139,14.6700399 L100.989139,9.64837382 L113.539902,9.64837382 L113.539136,9.6943957 C113.48168,13.2150695 113.432267,16.2555313 110.815323,19.0353283 C108.497534,21.5178692 104.90115,23 101.195215,23 C97.7340452,23 94.5915663,21.9362156 92.3469384,20.0048056 C89.9586697,17.9496646 88.6965454,15.0604714 88.6965454,11.6495711 C88.6965454,4.68140591 93.7438937,-5.15143483e-14 101.256885,-5.15143483e-14 Z M16.7822319,0.359347887 L16.7822319,6.21959292 L8.08027715,6.21959292 L8.08027715,8.68930803 L14.6961836,8.68930803 L14.6961836,14.2504109 L8.08027715,14.2504109 L8.08027715,16.7804825 L16.7822319,16.7804825 L16.7822319,22.6403503 L-1.77635684e-15,22.6403503 L-1.77635684e-15,0.359347887 L16.7822319,0.359347887 Z M75.8093939,0.339958341 L79.2724793,6.2428302 L79.7007205,6.2428302 L83.0117381,0.339958341 L91.1015913,0.339958341 L83.37333,12.9952207 L83.37333,22.6209608 L75.5366678,22.6209608 L75.5366678,12.9944662 L67.65902,0.339958341 L75.8093939,0.339958341 Z M27.6426684,0.339920618 L34.9197058,12.0355136 L34.9197058,0.339920618 L42.5736569,0.339920618 L42.5736569,22.6209231 L34.8496091,22.6209231 L27.5476739,10.9272162 L27.5423113,22.6209231 L19.8879772,22.6209231 L19.8879772,0.339920618 L27.6426684,0.339920618 Z M147.069011,0.339920618 L154.346049,12.0355136 L154.346049,0.339920618 L162,0.339920618 L162,22.6209231 L154.275569,22.6209231 L146.973634,10.9479638 L146.968654,22.6209231 L139.31432,22.6209231 L139.31432,0.339920618 L147.069011,0.339920618 Z"></path></defs><use fill="#2DC44D" fill-rule="evenodd" xlink:href="#enuygun-logo-a"></use></svg>