<svg class="footer-iata-logo" xmlns="http://www.w3.org/2000/svg" width="30" height="30" viewBox="0 0 192.756 192.756"><g fill-rule="evenodd" clip-rule="evenodd"><path d="M33.49 152.986l7.137-35.98h11.707l-7.14 35.98H33.49zM68.75 141.28h7.424l-2-13.278-5.424 13.277zm-16.418 11.706l17.704-35.98h11.564l7.138 35.98H78.032l-.714-4.283h-11.42l-1.857 4.283H52.335zm47.113 0l4.14-26.984h-10.28l1.715-9.137h31.41l-1.715 9.137h-9.707l-3.998 26.984H99.447zm39.262-11.707h7.423L144.278 128l-5.57 13.277zm-16.276 11.706l17.56-35.98h11.565l7.28 35.98h-10.994l-.428-4.283h-11.564L134 152.986h-11.566zm61.818-76.667H129.43c-2 10.135-8.994 18.56-22.986 24.412 1.57 4.854 6.996 9.28 12.562 9.28h29.84c4.568 0 8.14-3.854 9.564-6.995h-30.266c-1.855-.285-1.855-1.713-.143-2h29.84c3.854 0 7.28-3.283 9.278-6.852H132.57c-1.855-.286-1.855-1.713 0-2h34.836c3.568 0 6.71-4.14 7.994-6.852h-38.262c-1.855-.286-1.855-2 0-2.142h38.977c3.14.002 5.996-3.282 8.137-6.85zm-175.748 0h54.823c2 10.135 8.995 18.56 22.986 24.412-1.57 4.854-6.996 9.28-12.563 9.28H43.91c-4.567 0-8.137-3.854-9.564-6.995h30.267c1.856-.285 1.856-1.713.143-2h-29.84c-3.854 0-7.28-3.283-9.28-6.852h34.55c1.856-.286 1.856-1.713 0-2H25.35c-3.568 0-6.71-4.14-7.994-6.852h38.262c1.856-.286 1.856-2 0-2.142H16.642c-3.14.002-5.996-3.282-8.138-6.85zm70.1-30.268c2 1.713 4.283 3.284 6.71 4.283 2-4.14 4.997-7.566 8.28-10.565-5.568.572-10.708 2.713-14.99 6.282zm-9.71 20.13h12.28c.142-5.14 1.284-9.564 3.283-14.133-2.713-1.143-5.14-2.713-7.424-4.57-4.997 4.997-7.852 11.564-8.138 18.703zM95.45 54.62v11.563H83.172c.143-4.57 1.142-9.137 3.14-13.42 2.856 1.142 5.997 1.713 9.138 1.856zm18.702-8.568c-1.998 1.713-4.283 3.284-6.71 4.283-2.142-4.14-4.854-7.424-8.28-10.565 5.568.572 10.707 2.713 14.99 6.282zm9.71 20.13h-12.28c-.143-4.996-1.283-9.564-3.14-14.133 2.57-1.143 4.997-2.713 7.28-4.57 5.14 5.283 7.854 11.707 8.14 18.703zM97.448 54.62v11.563h12.134c0-4.71-1.143-9.137-3.14-13.42-2.856 1.142-5.997 1.713-8.995 1.856zM78.603 88.17c2-1.57 4.283-3.285 6.71-4.14 2.142 4.14 4.854 7.565 8.28 10.564-5.568-.714-10.708-2.713-14.99-6.425zm-9.71-19.99h12.28c.142 4.998 1.284 9.424 3.283 14.135-2.713 1.142-5.14 2.713-7.424 4.57-4.854-4.998-7.852-11.565-8.138-18.704zM95.45 79.747V68.18H83.172c.143 4.57 1.142 9.28 3.14 13.278 2.856-1 5.997-1.712 9.138-1.712zm18.702 8.423c-1.855-1.57-4.283-3.142-6.71-4.14-2.142 4.14-4.854 7.565-8.28 10.564 5.568-.714 10.707-2.713 14.99-6.425zm9.71-19.99h-12.28c-.143 4.998-1.14 9.566-3.14 14.135 2.57 1.142 4.997 2.713 7.28 4.57 4.856-4.998 7.854-11.708 8.14-18.704zM97.448 79.747V68.18h12.134c0 4.57-1.143 9.14-3.14 13.278-2.714-1-5.997-1.712-8.995-1.712zm-2-38.833c-3.283 2.57-6.282 6.282-8.28 10.137 2.713.856 5.425 1.57 8.28 1.57V40.913zm2 0c3.14 2.57 6.138 6.282 8.136 10.137-2.713 1-5.424 1.57-8.137 1.57V40.913zm-2 52.54c-3.283-2.57-6.282-6.283-8.28-10.138 2.713-1 5.425-1.57 8.28-1.57v11.707zm2 .14c3.14-2.71 6.138-6.424 8.136-10.278-2.713-.856-5.424-1.57-8.137-1.57v11.85z" fill="#FFF"></path></g></svg>