<svg xmlns="http://www.w3.org/2000/svg" xmlns:xlink="http://www.w3.org/1999/xlink" width="33" height="33">
    <defs>
    <path id="hediye-kart@3x-a" d="M23 12.333h-1.817c.092-.258.15-.541.15-.833a2.497 2.497 0 0 0-4.583-1.375l-.417.558-.416-.566A2.51 2.51 0 0 0 13.833 9a2.497 2.497 0 0 0-2.5 2.5c0 .292.059.575.15.833H9.667c-.925 0-1.659.742-1.659 1.667L8 23.167a1.66 1.66 0 0 0 1.667 1.666H23a1.66 1.66 0 0 0 1.667-1.666V14A1.66 1.66 0 0 0 23 12.333zm-4.167-1.666c.459 0 .834.375.834.833a.836.836 0 0 1-.834.833A.836.836 0 0 1 18 11.5c0-.458.375-.833.833-.833zm-5 0c.459 0 .834.375.834.833a.836.836 0 0 1-.834.833A.836.836 0 0 1 13 11.5c0-.458.375-.833.833-.833zM23 23.167H9.667V21.5H23v1.667zM23 19H9.667v-5H13.9l-1.733 2.358 1.35.975 2.816-3.833 2.817 3.833 1.35-.975L18.767 14H23v5z"></path>
    </defs>
    <g fill="none" fill-rule="evenodd">
    <circle cx="16.5" cy="16.5" r="16.5" fill="#EFEFEF"></circle>
    <use fill="#A8ADAF" fill-rule="nonzero" xlink:href="#hediye-kart@3x-a"></use>
    </g>
</svg>