<svg xmlns="http://www.w3.org/2000/svg" xmlns:xlink="http://www.w3.org/1999/xlink" width="123" height="38"><defs><linearGradient id="a" x1="19.215%" x2="69.302%" y1=".908%" y2="75.098%"><stop offset="0%" stop-color="#19A3B4"></stop><stop offset="34.817%" stop-color="#5BC3AF"></stop><stop offset="92.234%" stop-color="#C8F7A6"></stop><stop offset="100%" stop-color="#D7FEA5"></stop></linearGradient><linearGradient id="c" x1="-14.698%" x2="74.844%" y1="-51.246%" y2="89.529%"><stop offset="0%" stop-color="#FC227C"></stop><stop offset="100%" stop-color="#FEEB7B"></stop></linearGradient><linearGradient id="d" x1="43.777%" x2="49.484%" y1="-14.814%" y2="82.894%"><stop offset="0%" stop-color="#0E4DA0"></stop><stop offset="100%" stop-color="#6BFED4"></stop></linearGradient><linearGradient id="f" x1="132.245%" x2="5.959%" y1="30.669%" y2="93.99%"><stop offset="0%" stop-color="#FC472E"></stop><stop offset=".332%" stop-color="#FC472F"></stop><stop offset="100%" stop-color="#893CD8"></stop></linearGradient><path id="b" d="M12.451 6.108L1.603.183C1.295.015 1.012-.023.782.048l8.886 8.826 2.783-2.766"></path><path id="e" d="M.781.048C.451.15.238.482.238.984l.002 15.8c0 .497.207.824.527.933l8.9-8.842L.782.048"></path><path id="g" d="M.767 17.717c.231.078.52.042.836-.13l10.86-5.934-2.795-2.778-8.9 8.842"></path></defs><g fill="none" fill-rule="evenodd" transform="translate(1 1)"><rect width="122" height="37" x="-.5" y="-.5" fill="#FFF" stroke="#D7DDDB" rx="4"></rect><g transform="translate(11 9)"><use fill="url(#a)" xlink:href="#b"></use><path fill="url(#c)" d="M12.465 11.653L16.17 9.63c.75-.411.75-1.08 0-1.492l-3.717-2.03-2.784 2.766 2.797 2.78"></path><use fill="url(#d)" xlink:href="#e"></use><use fill="url(#f)" xlink:href="#g"></use></g><text fill="#53605E" font-family="Arial-BoldMT, Arial" font-size="12" font-weight="bold" transform="translate(11 5)"><tspan x="24.439" y="11">Google Play</tspan><tspan x="24" y="24.053" font-family="ArialMT, Arial" font-weight="normal">’den indirin</tspan></text></g></svg>