<svg width="24" height="24" viewBox="0 0 24 24" xmlns="http://www.w3.org/2000/svg" xmlns:xlink="http://www.w3.org/1999/xlink"><defs><path d="M12.5 21c1.031 0 1.875-.83 1.875-1.846h-3.75c0 1.015.844 1.846 1.875 1.846Zm5.625-5.538v-4.616c0-2.834-1.528-5.206-4.219-5.834v-.627C13.906 3.618 13.278 3 12.5 3c-.778 0-1.406.618-1.406 1.385v.627c-2.681.628-4.219 2.991-4.219 5.834v4.616L5 17.308v.923h15v-.923l-1.875-1.846Zm-1.875.923h-7.5v-5.539c0-2.29 1.416-4.154 3.75-4.154s3.75 1.865 3.75 4.154v5.539Z" id="notification-path"></path></defs><g fill="none" fill-rule="evenodd"><mask id="notification-icon" fill="#fff"><use xlink:href="#notification-path"></use></mask><g fill-rule="nonzero"></g><g mask="url(#notification-icon)"><path fill="#53605E" d="M1 1h22v22H1z"></path></g></g></svg>