<svg xmlns="http://www.w3.org/2000/svg" xmlns:xlink="http://www.w3.org/1999/xlink" width="33" height="33" viewBox="0 0 33 33">
    <defs>
    <path id="bilet-iptal@3x-a" d="M9.21113793,9.24593103 L25.4904483,25.5252414 L24.279069,26.7362759 L21.3445862,23.8017931 L21.3445862,26.9928276 L18.0887241,26.9928276 C17.9528621,26.7535172 17.7601034,26.5504138 17.5287241,26.4021379 C17.2656207,26.2338621 16.9535517,26.135931 16.619069,26.135931 C16.2856207,26.135931 15.9732069,26.2338621 15.7104483,26.4021379 C15.4794138,26.550069 15.2866552,26.7528276 15.1511379,26.9917931 L15.1511379,26.9917931 L11.8942414,26.9917931 L11.8942414,14.3517931 L7.99975862,10.4573103 L9.21113793,9.24593103 Z M15.1502759,7.00017241 C15.2861379,7.23948276 15.4788966,7.44224138 15.7102759,7.59051724 C15.9733793,7.7587931 16.2854483,7.85637931 16.6195862,7.85637931 C16.9537241,7.85637931 17.2657931,7.7587931 17.5288966,7.59051724 C17.7595862,7.44258621 17.9523448,7.24017241 18.0882069,7.00086207 L18.0882069,7.00086207 L21.3444138,7.00086207 L21.3444138,18.9932759 L11.8944138,9.78155172 L11.8944138,7.00017241 Z"></path>
    </defs>
    <g fill="none" fill-rule="evenodd">
    <circle cx="16.5" cy="16.5" r="16.5" fill="#EFEFEF"></circle>
    <use fill="#A8ADAF" fill-rule="nonzero" transform="translate(0 0)" xlink:href="#bilet-iptal@3x-a"></use>
    </g>
</svg>