<svg xmlns="http://www.w3.org/2000/svg" xmlns:xlink="http://www.w3.org/1999/xlink" width="33" height="33" viewBox="0 0 33 33">
    <defs>
    <path id="pnr@3x-a" d="M2,3.33333333 L18,3.33333333 C19.1045695,3.33333333 20,4.22876383 20,5.33333333 L20,14.6666667 C20,15.7712362 19.1045695,16.6666667 18,16.6666667 L2,16.6666667 C0.8954305,16.6666667 1.11632554e-15,15.7712362 0,14.6666667 L0,5.33333333 C-1.3527075e-16,4.22876383 0.8954305,3.33333333 2,3.33333333 Z M6.17757161,8.83056641 C6.17757161,8.15320842 5.97093577,7.64370559 5.55765788,7.30204264 C5.14437999,6.96037969 4.54088396,6.78955078 3.74715169,6.78955078 L1.65690104,6.78955078 L1.65690104,13.3333333 L3.04443359,13.3333333 L3.04443359,11.0058594 L3.63972982,11.0058594 C4.45136582,11.0058594 5.07724118,10.8193649 5.51737467,10.4463704 C5.95750817,10.073376 6.17757161,9.53478 6.17757161,8.83056641 Z M3.04443359,9.86897786 L3.04443359,7.92643229 L3.67553711,7.92643229 C4.05449951,7.92643229 4.33274922,8.00401398 4.5102946,8.15917969 C4.68783997,8.31434539 4.77661133,8.55455024 4.77661133,8.87980143 C4.77661133,9.20206867 4.67068248,9.44749536 4.45882161,9.61608887 C4.24696075,9.78468238 3.92768226,9.86897786 3.50097656,9.86897786 L3.04443359,9.86897786 Z M12.7181803,13.3333333 L12.7181803,6.78955078 L11.469401,6.78955078 L11.469401,9.88688151 C11.469401,10.2389883 11.4917804,10.8402464 11.5365397,11.6906738 L11.5052083,11.6906738 L8.66300454,6.78955078 L6.91292316,6.78955078 L6.91292316,13.3333333 L8.15275063,13.3333333 L8.15275063,10.2539063 C8.15275063,9.88091176 8.12440348,9.25727434 8.06770831,8.38297526 L8.10799152,8.38297526 L10.9546712,13.3333333 L12.7181803,13.3333333 Z M15.2528483,10.822347 L15.9913737,10.822347 L17.5534668,13.3333333 L19.0931803,13.3333333 L17.1685384,10.4821777 C17.5564526,10.3120922 17.8563357,10.0771092 18.0681966,9.77722168 C18.2800574,9.47733411 18.3859863,9.13493031 18.3859863,8.75 C18.3859863,8.09054575 18.1726366,7.59894639 17.7459309,7.27518717 C17.3192253,6.95142796 16.6612729,6.78955078 15.772054,6.78955078 L13.8653157,6.78955078 L13.8653157,13.3333333 L15.2528483,13.3333333 L15.2528483,10.822347 Z M15.2528483,9.69441732 L15.2528483,7.92643229 L15.6735839,7.92643229 C16.1211773,7.92643229 16.4516455,7.99207834 16.6649983,8.1233724 C16.8783512,8.25466646 16.985026,8.47547588 16.985026,8.78580729 C16.985026,9.09912266 16.8805891,9.32888382 16.6717122,9.47509766 C16.4628353,9.62131149 16.1390809,9.69441732 15.7004394,9.69441732 L15.2528483,9.69441732 Z"></path>
    </defs>
    <g fill="none" fill-rule="evenodd">
    <circle cx="16.5" cy="16.5" r="16.5" fill="#EFEFEF"></circle>
    <g transform="translate(7 7)">
        <polygon points="0 0 20 0 20 20 0 20"></polygon>
        <use fill="#A8ADAF" xlink:href="#pnr@3x-a"></use>
    </g>
    </g>
</svg>